<svg xmlns="http://www.w3.org/2000/svg" version="1.1" xmlns:xlink="http://www.w3.org/1999/xlink" xmlns:svgjs="http://svgjs.dev/svgjs" width="2000" height="1247" viewBox="0 0 2000 1247"><g transform="matrix(1,0,0,1,-1.2121212121212466,0.504858299595071)"><svg viewBox="0 0 396 247" data-background-color="#ffffff" preserveAspectRatio="xMidYMid meet" height="1247" width="2000" xmlns="http://www.w3.org/2000/svg" xmlns:xlink="http://www.w3.org/1999/xlink"><g id="tight-bounds" transform="matrix(1,0,0,1,0.2400000000000091,-0.09999999999999432)"><svg viewBox="0 0 395.52 247.2" height="247.2" width="395.52"><g><svg></svg></g><g><svg viewBox="0 0 395.52 247.2" height="247.2" width="395.52"><g transform="matrix(1,0,0,1,75.54432,67.82727172755418)"><svg viewBox="0 0 244.43135999999998 111.54545654489162" height="111.54545654489162" width="244.43135999999998"><g><svg viewBox="0 0 244.43135999999998 111.54545654489162" height="111.54545654489162" width="244.43135999999998"><g><svg viewBox="0 0 244.43135999999998 111.54545654489162" height="111.54545654489162" width="244.43135999999998"><g><svg viewBox="0 0 244.43135999999998 111.54545654489162" height="111.54545654489162" width="244.43135999999998"><g id="textblocktransform"><svg viewBox="0 0 244.43135999999998 111.54545654489162" height="111.54545654489162" width="244.43135999999998" id="textblock"><g><svg viewBox="0 0 244.43135999999998 111.54545654489162" height="111.54545654489162" width="244.43135999999998"><g transform="matrix(1,0,0,1,0,0)"><svg width="244.43135999999998" viewBox="3.69 -35.49890909090909 78.85000000000001 35.98890909090909" height="111.54545654489162" data-palette-color="#915eff"><path d="M38.67-35.01L38.67-2.71Q38.67-2.03 38.42-1.44 38.16-0.85 37.73-0.43 37.3 0 36.72 0.24 36.13 0.49 35.47 0.49L35.47 0.49Q34.89 0.49 34.29 0.27 33.69 0.05 33.23-0.44L33.23-0.44 10.03-24.66 10.03 0 3.69 0 3.69-32.3Q3.69-33.28 4.24-34.07 4.79-34.86 5.64-35.25L5.64-35.25Q6.54-35.62 7.5-35.44 8.45-35.25 9.13-34.55L9.13-34.55 32.32-10.35 32.32-35.01 38.67-35.01ZM81.03-27.29L81.03-23.24Q81.03-21.07 80.49-19.36 79.95-17.65 79.04-16.35 78.12-15.04 76.93-14.11 75.73-13.18 74.42-12.59 73.12-11.99 71.79-11.72 70.46-11.45 69.28-11.45L69.28-11.45 82.54 0 72.73 0 59.49-11.45 54.93-11.45 54.93-17.8 69.28-17.8Q70.48-17.9 71.47-18.3 72.46-18.7 73.18-19.38 73.9-20.07 74.29-21.03 74.68-22 74.68-23.24L74.68-23.24 74.68-27.25Q74.68-27.78 74.55-28.06 74.41-28.34 74.2-28.48 74-28.61 73.76-28.64 73.53-28.66 73.34-28.66L73.34-28.66 52.39-28.66 52.39 0 46.04 0 46.04-31.81Q46.04-32.47 46.29-33.06 46.53-33.64 46.96-34.08 47.39-34.52 47.97-34.77 48.56-35.01 49.24-35.01L49.24-35.01 73.34-35.01Q75.46-35.01 76.93-34.24 78.39-33.47 79.31-32.31 80.22-31.15 80.62-29.81 81.03-28.47 81.03-27.29L81.03-27.29Z" opacity="1" transform="matrix(1,0,0,1,0,0)" fill="#915eff" class="undefined-text-0" data-fill-palette-color="primary" id="text-0"></path></svg></g></svg></g></svg></g></svg></g></svg></g></svg></g></svg></g><g><path d="M245.816 0c68.262 0 123.6 55.338 123.6 123.6 0 68.262-55.338 123.6-123.6 123.6-42.736 0-80.406-21.689-102.604-54.661l6.123 0c21.509 30.049 56.708 49.631 96.481 49.631 65.485 0 118.57-53.086 118.57-118.57 0-65.485-53.086-118.57-118.57-118.57-39.772 0-74.971 19.582-96.481 49.631l-6.123 0c22.197-32.971 59.867-54.661 102.604-54.661z" fill="#915eff" stroke="transparent" data-fill-palette-color="tertiary"></path></g></svg></g><defs></defs></svg><rect width="395.52" height="247.2" fill="none" stroke="none" visibility="hidden"></rect></g></svg></g></svg>